# xmcd CD database file
#
# Track frame offsets:
#	165
#	16020
#	29865
#	48315
#	64590
#	81140
#	94515
#	109815
#	127615
#	143115
#	160740
#	172965
#	188625
#	197415
#	216390
#
# Disc length: 3211 seconds
#
# Revision: 0
# Processed by: cddbd v1.5.1PL0 Copyright (c) Steve Scherf et al.
# Submitted via: CDex 1.51
#
DISCID=bc0c890f
DTITLE=Marco Zurzolo - Polvere di Napoli
DYEAR=1998
DGENRE=Jazz
TTITLE0=Tararìrararì
TTITLE1=Twistango
TTITLE2=Porta del sud
TTITLE3=Qaunti penzieri
TTITLE4=Formiche elefanti e vecchie zanzare
TTITLE5=Suonne
TTITLE6=Alle prime prima delle prime
TTITLE7=Paupisi Valley
TTITLE8=Chadish
TTITLE9=I' te vurria vasà
TTITLE10=Tammurriata d''o Galileo
TTITLE11=Polvere di Napoli
TTITLE12=Sfida finale
TTITLE13=Senza Respiro
TTITLE14=Tango Caracolito
EXTD=YEAR: 1998
EXTT0=
EXTT1=
EXTT2=
EXTT3=
EXTT4=
EXTT5=
EXTT6=
EXTT7=
EXTT8=
EXTT9=
EXTT10=
EXTT11=
EXTT12=
EXTT13=
EXTT14=
PLAYORDER=
